<?xml version="1.0" encoding="UTF-8"?>
<svg width="46px" height="49px" viewBox="0 0 46 49" version="1.1" xmlns="http://www.w3.org/2000/svg" xmlns:xlink="http://www.w3.org/1999/xlink">
    <!-- Generator: Sketch 45.2 (43514) - http://www.bohemiancoding.com/sketch -->
    <title>Icon</title>
    <desc>Created with Sketch.</desc>
    <defs></defs>
    <g id="Boletim" stroke="none" stroke-width="1" fill="none" fill-rule="evenodd" stroke-linecap="round" stroke-linejoin="round">
        <g id="Perfil-Cão" transform="translate(-273.000000, -1688.000000)" stroke="#9B9B9B" stroke-width="4">
            <g id="Historico" transform="translate(0.000000, 1387.000000)">
                <g id="Group-6-Copy-9" transform="translate(142.000000, 173.000000)">
                    <g id="Group-5">
                        <g id="Icon" transform="translate(132.000000, 130.000000)">
                            <path d="M10.9278,31.5905 L21.6528,44.3305 C21.8448,44.5575 22.1578,44.5545 22.3468,44.3305 L33.0868,31.5735" id="Stroke-136"></path>
                            <path d="M2.9739,17.042 C2.1309,15.88 1.5239,14.54 1.2199,13.091 C1.0759,12.403 0.9999,11.691 0.9999,10.961 C0.9999,5.183 5.7449,0.5 11.5979,0.5 C16.4269,0.5 20.5009,3.688 21.7799,8.047 L22.2209,8.056 C23.4989,3.696 27.5729,0.508 32.4019,0.508 C38.2549,0.508 42.9999,5.192 42.9999,10.969 C42.9999,11.699 42.9239,12.412 42.7799,13.099 C42.4679,14.59 41.8339,15.964 40.9539,17.149" id="Stroke-138"></path>
                            <polyline id="Stroke-140" points="0.9773 24.6569 9.1373 24.5059 13.6733 17.7289 20.2093 29.4389 25.7753 24.9999 42.0003 24.9999"></polyline>
                        </g>
                    </g>
                </g>
            </g>
        </g>
    </g>
</svg>