<?xml version="1.0" encoding="UTF-8"?>
<svg width="250px" height="230px" viewBox="0 0 250 230" version="1.1" xmlns="http://www.w3.org/2000/svg" xmlns:xlink="http://www.w3.org/1999/xlink">
    <!-- Generator: Sketch 45.2 (43514) - http://www.bohemiancoding.com/sketch -->
    <title>ic_profile_info</title>
    <desc>Created with Sketch.</desc>
    <defs></defs>
    <g id="Boletim" stroke="none" stroke-width="1" fill="none" fill-rule="evenodd" opacity="0.2">
        <g id="Perfil" transform="translate(-115.000000, -535.000000)" fill="#FFFFFF">
            <g id="ic_profile_info" transform="translate(115.000000, 525.000000)">
                <g id="Group">
                    <g transform="translate(0.000000, 10.416667)" fill-rule="nonzero">
                        <path d="M20.8333333,20.8333333 L20.8333333,187.5 L145.833333,187.5 C148.596005,187.5 151.245525,188.597467 153.199029,190.550971 L170.981391,208.333333 L229.166667,208.333333 L229.166667,41.6666667 L104.166667,41.6666667 C101.403995,41.6666667 98.754475,40.5691996 96.800971,38.6156956 L79.0186087,20.8333333 L20.8333333,20.8333333 Z M10.4166667,208.333333 C4.66370052,208.333333 0,203.669633 0,197.916667 L0,10.4166667 C0,4.66370052 4.66370052,0 10.4166667,0 L83.3333333,0 C86.0960051,0 88.745525,1.09746709 90.699029,3.05097103 L108.481391,20.8333333 L239.583333,20.8333333 C245.336299,20.8333333 250,25.4970339 250,31.25 L250,218.75 C250,224.502966 245.336299,229.166667 239.583333,229.166667 L166.666667,229.166667 C163.903995,229.166667 161.254475,228.0692 159.300971,226.115696 L141.518609,208.333333 L10.4166667,208.333333 Z" id="Rectangle-2"></path>
                        <path d="M93.75,125 C76.4911016,125 62.5,111.008898 62.5,93.75 C62.5,76.4911016 76.4911016,62.5 93.75,62.5 C111.008898,62.5 125,76.4911016 125,93.75 C125,111.008898 111.008898,125 93.75,125 Z M93.75,104.166667 C99.5029661,104.166667 104.166667,99.5029661 104.166667,93.75 C104.166667,87.9970339 99.5029661,83.3333333 93.75,83.3333333 C87.9970339,83.3333333 83.3333333,87.9970339 83.3333333,93.75 C83.3333333,99.5029661 87.9970339,104.166667 93.75,104.166667 Z" id="Oval-2"></path>
                        <path d="M145.833333,156.25 C145.833333,127.485169 122.514831,104.166667 93.75,104.166667 C64.9851693,104.166667 41.6666667,127.485169 41.6666667,156.25 C41.6666667,162.002966 46.3303672,166.666667 52.0833333,166.666667 C57.8362995,166.666667 62.5,162.002966 62.5,156.25 C62.5,138.991102 76.4911016,125 93.75,125 C111.008898,125 125,138.991102 125,156.25 C125,162.002966 129.663701,166.666667 135.416667,166.666667 C141.169633,166.666667 145.833333,162.002966 145.833333,156.25 Z" id="Oval"></path>
                        <path d="M177.083333,104.166667 L197.916667,104.166667 C203.669633,104.166667 208.333333,99.5029661 208.333333,93.75 C208.333333,87.9970339 203.669633,83.3333333 197.916667,83.3333333 L177.083333,83.3333333 C171.330367,83.3333333 166.666667,87.9970339 166.666667,93.75 C166.666667,99.5029661 171.330367,104.166667 177.083333,104.166667 Z" id="Line"></path>
                        <path d="M177.083333,145.833333 L197.916667,145.833333 C203.669633,145.833333 208.333333,141.169633 208.333333,135.416667 C208.333333,129.663701 203.669633,125 197.916667,125 L177.083333,125 C171.330367,125 166.666667,129.663701 166.666667,135.416667 C166.666667,141.169633 171.330367,145.833333 177.083333,145.833333 Z" id="Line-Copy"></path>
                    </g>
                </g>
            </g>
        </g>
    </g>
</svg>