<?xml version="1.0" encoding="UTF-8"?>
<svg width="250px" height="246px" viewBox="0 0 250 246" version="1.1" xmlns="http://www.w3.org/2000/svg" xmlns:xlink="http://www.w3.org/1999/xlink">
    <!-- Generator: Sketch 45.2 (43514) - http://www.bohemiancoding.com/sketch -->
    <title>Marcação</title>
    <desc>Created with Sketch.</desc>
    <defs></defs>
    <g id="Boletim" stroke="none" stroke-width="1" fill="none" fill-rule="evenodd" opacity="0.3">
        <g id="Perfil" transform="translate(-595.000000, -528.000000)" fill="#FFFFFF">
            <g id="Marcação" transform="translate(595.000000, 528.000000)">
                <g id="Icon" transform="translate(11.904762, 11.902439)">
                    <path d="M214.285714,35.7073171 L11.9047619,35.7073171 L11.9047619,214.243902 L214.285714,214.243902 L214.285714,35.7073171 Z M238.095238,220.195122 C238.095238,230.053731 230.098628,238.04878 220.238095,238.04878 L5.95238095,238.04878 C-3.90815178,238.04878 -11.9047619,230.053731 -11.9047619,220.195122 L-11.9047619,29.7560976 C-11.9047619,19.8974888 -3.90815178,11.902439 5.95238095,11.902439 L220.238095,11.902439 C230.098628,11.902439 238.095238,19.8974888 238.095238,29.7560976 L238.095238,220.195122 Z" id="Stroke-192" fill-rule="nonzero"></path>
                    <path d="M5.95238095,95.2195122 L220.238095,95.2195122 C226.812914,95.2195122 232.142857,89.8906087 232.142857,83.3170732 C232.142857,76.7435376 226.812914,71.4146341 220.238095,71.4146341 L5.95238095,71.4146341 C-0.622437498,71.4146341 -5.95238095,76.7435376 -5.95238095,83.3170732 C-5.95238095,89.8906087 -0.622437498,95.2195122 5.95238095,95.2195122 Z" id="Stroke-194" fill-rule="nonzero"></path>
                    <path d="M41.6666667,0 L41.6666667,47.6097561 C41.6666667,54.1832917 46.9966101,59.5121951 53.5714286,59.5121951 C60.146247,59.5121951 65.4761905,54.1832917 65.4761905,47.6097561 L65.4761905,0 C65.4761905,-6.57353556 60.146247,-11.902439 53.5714286,-11.902439 C46.9966101,-11.902439 41.6666667,-6.57353556 41.6666667,0 Z" id="Stroke-196" fill-rule="nonzero"></path>
                    <path d="M184.52381,47.6097561 L184.52381,0 C184.52381,-6.57353556 179.193866,-11.902439 172.619048,-11.902439 C166.044229,-11.902439 160.714286,-6.57353556 160.714286,0 L160.714286,47.6097561 C160.714286,54.1832917 166.044229,59.5121951 172.619048,59.5121951 C179.193866,59.5121951 184.52381,54.1832917 184.52381,47.6097561 Z" id="Stroke-198" fill-rule="nonzero"></path>
                    <path d="M75.8148459,139.748298 C71.2252806,135.041337 63.6882125,134.945443 58.9803331,139.534113 C54.2724538,144.122783 54.1765412,151.65838 58.7661065,156.365341 L90.8613446,189.281536 C95.3965807,193.932778 102.824197,194.089565 107.551744,189.633848 L170.694601,130.121653 C175.478781,125.61256 175.701069,118.07963 171.191095,113.296384 C166.681122,108.513137 159.146722,108.290892 154.362542,112.799986 L99.7381447,164.283526 L75.8148459,139.748298 Z" id="Stroke-200" fill-rule="nonzero"></path>
                </g>
            </g>
        </g>
    </g>
</svg>