<?xml version="1.0" encoding="UTF-8"?>
<svg width="250px" height="274px" viewBox="0 0 250 274" version="1.1" xmlns="http://www.w3.org/2000/svg" xmlns:xlink="http://www.w3.org/1999/xlink">
    <!-- Generator: Sketch 45.2 (43514) - http://www.bohemiancoding.com/sketch -->
    <title>MyPetStory</title>
    <desc>Created with Sketch.</desc>
    <defs></defs>
    <g id="Boletim" stroke="none" stroke-width="1" fill="none" fill-rule="evenodd" opacity="0.2">
        <g id="Perfil" transform="translate(-1075.000000, -513.000000)" fill="#FFFFFF">
            <g id="MyPetStory" transform="translate(1075.000000, 513.000000)">
                <g id="Icon" transform="translate(11.904762, 11.913043)">
                    <path d="M178.571429,47.6521739 L11.9047619,47.6521739 L11.9047619,238.26087 L178.571429,238.26087 L178.571429,47.6521739 Z M202.380952,244.217391 C202.380952,254.084784 194.384342,262.086957 184.52381,262.086957 L5.95238095,262.086957 C-3.90815178,262.086957 -11.9047619,254.084784 -11.9047619,244.217391 L-11.9047619,41.6956522 C-11.9047619,31.8282599 -3.90815178,23.826087 5.95238095,23.826087 L184.52381,23.826087 C194.384342,23.826087 202.380952,31.8282599 202.380952,41.6956522 L202.380952,244.217391 Z" id="Stroke-340" fill-rule="nonzero"></path>
                    <path d="M214.285714,208.478261 C214.285714,215.057653 219.615658,220.391304 226.190476,220.391304 C232.765295,220.391304 238.095238,215.057653 238.095238,208.478261 L238.095238,3.27608696 C238.095238,-3.0106635 234.707035,-8.40160279 228.838764,-10.6961973 C225.98006,-11.8139998 224.438143,-11.9238303 220.358952,-11.9137927 C220.202278,-11.9134105 160.638183,-11.9131607 41.6666667,-11.9130435 C35.0918482,-11.9130435 29.7619048,-6.57939224 29.7619048,-5.32907052e-15 C29.7619048,6.57939224 35.0918482,11.9130435 41.6666667,11.9130435 L214.285714,11.9130435 L214.285714,208.478261 Z" id="Stroke-342" fill-rule="nonzero"></path>
                </g>
            </g>
        </g>
    </g>
</svg>