<?xml version="1.0" encoding="UTF-8"?>
<svg width="49px" height="45px" viewBox="0 0 49 45" version="1.1" xmlns="http://www.w3.org/2000/svg" xmlns:xlink="http://www.w3.org/1999/xlink">
    <!-- Generator: Sketch 45.2 (43514) - http://www.bohemiancoding.com/sketch -->
    <title>Page 1</title>
    <desc>Created with Sketch.</desc>
    <defs>
        <polygon id="path-1" points="0 17.4590442 0 0.50569795 13.6853 0.50569795 13.6853 17.4590442 9.30245464e-17 17.4590442"></polygon>
    </defs>
    <g id="Boletim" stroke="none" stroke-width="1" fill="none" fill-rule="evenodd">
        <g id="Perfil-Cão" transform="translate(-764.000000, -1691.000000)">
            <g id="Historico" transform="translate(0.000000, 1387.000000)">
                <g id="Group-6-Copy-2" transform="translate(632.000000, 173.000000)">
                    <g id="Group-5">
                        <g id="Page-1" transform="translate(132.000000, 130.000000)">
                            <path d="M34.9438,34.4091 C34.7178,33.6291 34.4298,32.8671 34.1568,32.1011 C33.7758,31.0341 33.4248,29.9531 32.9818,28.9121 C32.5888,27.9871 32.1098,27.0961 31.6298,26.2111 C31.0618,25.1641 30.4998,24.1101 29.7288,23.1891 C28.7618,22.0341 27.5818,21.1691 26.1778,20.6341 C24.7738,20.0981 23.3018,20.0051 21.8328,20.2271 C20.8208,20.3791 19.8258,20.6591 18.8358,20.9271 C18.1918,21.1001 17.5478,21.3061 16.9438,21.5831 C15.9048,22.0601 14.9868,22.7381 14.0908,23.4481 C12.8048,24.4671 11.6008,25.5751 10.4868,26.7781 C9.6378,27.6951 8.8118,28.6351 7.9848,29.5721 C7.1198,30.5521 6.3788,31.6111 5.9148,32.8481 C5.4958,33.9691 5.4238,35.1031 5.7608,36.2531 C6.0838,37.3551 6.6968,38.3031 7.3478,39.2371 C7.7158,39.7651 8.1278,40.2621 8.6738,40.5601 C9.9958,41.2831 11.4248,41.3731 12.8928,41.0851 C13.5458,40.9561 14.2078,40.8671 14.8658,40.7641 C15.2738,40.7011 15.6818,40.6431 16.0908,40.5881 C16.4148,40.5441 16.7388,40.4821 17.0648,40.4751 C17.8568,40.4591 18.6498,40.4701 19.4428,40.4701 C19.5208,40.4711 19.6008,40.4661 19.6758,40.4811 C20.2368,40.5921 20.7948,40.7211 21.3578,40.8191 C22.1718,40.9601 22.8918,41.2791 23.5148,41.8291 C23.8328,42.1091 24.0868,42.4291 24.2978,42.7931 C24.6048,43.3201 25.0128,43.7731 25.5188,44.1001 C26.5938,44.7951 27.7608,45.2501 29.0618,45.2341 C29.9508,45.2571 30.7828,45.0571 31.5728,44.6661 C32.4488,44.2331 33.1888,43.6341 33.8238,42.8921 C34.5128,42.0871 35.0528,41.1981 35.3988,40.1971 C35.7408,39.2071 35.8898,38.1951 35.6388,37.1581 C35.4168,36.2391 35.2068,35.3161 34.9438,34.4091" id="Fill-1" fill="#C8BDDD"></path>
                            <g id="Group-5" transform="translate(14.000000, 0.236200)" fill="#C8BDDD">
                                <path d="M3.2751,17.3289 C4.6441,18.3129 6.1731,18.6429 7.8091,18.3599 C9.6141,18.0469 11.0511,17.0649 12.1681,15.6419 C13.4451,14.0149 14.0661,12.1439 14.0721,9.5929 C14.0831,8.3569 13.5931,6.8019 12.6401,5.3819 C12.0201,4.4579 11.4191,3.5209 10.8121,2.5879 C10.6081,2.2749 10.4631,1.9049 10.2021,1.6539 C9.7361,1.2079 9.1921,0.8879 8.5131,0.7969 C7.5201,0.6629 6.6781,0.9379 5.9781,1.6199 C5.1451,2.4309 4.3621,3.2939 3.5241,4.0989 C2.8261,4.7689 2.0841,5.3929 1.6161,6.2619 C1.3961,6.6709 1.1511,7.0709 0.9751,7.4989 C0.3181,9.0949 0.0771,10.7489 0.3741,12.4639 C0.7181,14.4559 1.6011,16.1259 3.2751,17.3289" id="Fill-3"></path>
                            </g>
                            <g id="Group-8" transform="translate(0.000000, 8.236200)">
                                <mask id="mask-2" fill="white">
                                    <use xlink:href="#path-1"></use>
                                </mask>
                                <g id="Clip-7"></g>
                                <path d="M7.3803,17.3306 C9.0333,17.0056 10.3753,16.1466 11.4753,14.8886 C12.9143,13.2426 13.6103,11.3136 13.6853,8.9906 C13.6523,8.6836 13.6233,8.2266 13.5533,7.7756 C13.3793,6.6556 12.9513,5.6366 12.3093,4.7026 C11.9423,4.1686 11.5843,3.6286 11.2563,3.0706 C10.9963,2.6286 10.8413,2.1176 10.5473,1.7016 C9.7183,0.5276 8.2393,0.2216 6.9933,0.7676 C6.4833,0.9906 6.1483,1.4206 5.7553,1.7936 C5.1453,2.3726 4.4823,2.9086 3.7873,3.3856 C2.3913,4.3426 1.3623,5.5906 0.7133,7.1386 C0.0923,8.6226 -0.1537,10.1666 0.0963,11.7816 C0.3713,13.5556 1.1173,15.0616 2.5343,16.1846 C3.9623,17.3176 5.5953,17.6816 7.3803,17.3306" id="Fill-6" fill="#C8BDDD" mask="url(#mask-2)"></path>
                            </g>
                            <path d="M47.1269,24.0536 C46.8939,23.3446 46.6209,22.6426 46.4639,21.9156 C46.2009,20.6936 45.1069,19.6436 43.8069,19.5616 C42.8819,19.5026 42.0759,19.7846 41.4409,20.4836 C41.1279,20.8276 40.8419,21.1956 40.5119,21.5216 C39.4959,22.5216 38.3269,23.3586 37.4289,24.4876 C36.9229,25.1226 36.4939,25.7946 36.1869,26.5396 C35.5829,28.0086 35.3989,29.5416 35.6619,31.1026 C36.0439,33.3726 37.1369,35.2016 39.2039,36.3266 C40.3939,36.9756 41.6819,37.1336 43.0129,36.8346 C44.3399,36.5346 45.4559,35.8776 46.3409,34.8406 C46.6489,34.4806 47.0119,34.1466 47.2359,33.7386 C47.5689,33.1316 47.8399,32.4826 48.0659,31.8276 C48.3459,31.0156 48.4629,30.1656 48.5159,29.2916 C48.4069,28.6026 48.3609,27.8956 48.1739,27.2286 C47.8729,26.1566 47.4749,25.1126 47.1269,24.0536" id="Fill-9" fill="#C8BDDD"></path>
                            <path d="M31.3891,21.3027 C32.6791,22.3017 34.1631,22.6687 35.7741,22.4007 C37.5701,22.1027 38.9741,21.1297 40.0661,19.7107 C41.2221,18.2087 41.7651,16.4787 41.8121,14.5767 C41.7961,13.2167 41.5251,11.9087 40.8361,10.7077 C40.4461,10.0287 40.0401,9.3597 39.6541,8.6777 C39.5121,8.4277 39.3661,8.1687 39.2881,7.8947 C38.9371,6.6507 38.1781,5.8647 36.8791,5.6307 C35.7291,5.4237 34.7971,5.8267 34.0931,6.7027 C33.5011,7.4377 32.8301,8.0767 32.0761,8.6267 C31.0181,9.3977 30.1781,10.3527 29.6011,11.5217 C28.8821,12.9747 28.5511,14.5067 28.7011,16.1417 C28.8921,18.2387 29.7101,20.0017 31.3891,21.3027" id="Fill-11" fill="#C8BDDD"></path>
                        </g>
                    </g>
                </g>
            </g>
        </g>
    </g>
</svg>