<?xml version="1.0" encoding="UTF-8"?>
<svg width="46px" height="45px" viewBox="0 0 46 45" version="1.1" xmlns="http://www.w3.org/2000/svg" xmlns:xlink="http://www.w3.org/1999/xlink">
    <!-- Generator: Sketch 45.2 (43514) - http://www.bohemiancoding.com/sketch -->
    <title>Fill 1</title>
    <desc>Created with Sketch.</desc>
    <defs></defs>
    <g id="Boletim" stroke="none" stroke-width="1" fill="none" fill-rule="evenodd">
        <g id="Perfil-Cão" transform="translate(-521.000000, -1690.000000)" fill="#9B9B9B">
            <g id="Historico" transform="translate(0.000000, 1387.000000)">
                <g id="Group-6-Copy" transform="translate(387.000000, 173.000000)">
                    <path d="M152.82908,169.995831 C150.84808,170.863831 148.54108,169.959831 147.67308,167.979831 C146.80608,165.998831 147.70608,163.689831 149.68708,162.822831 C151.66908,161.953831 153.97708,162.856831 154.84408,164.837831 C155.71208,166.818831 154.81108,169.127831 152.82908,169.995831 M143.40208,148.477831 C141.42208,149.344831 139.11408,148.441831 138.24708,146.461831 C137.37908,144.480831 138.28008,142.172831 140.26008,141.304831 C142.24308,140.436831 144.55008,141.339831 145.41808,143.319831 C146.28608,145.300831 145.38508,147.608831 143.40208,148.477831 M177.87508,155.949831 L161.23508,149.214831 L167.56608,132.416831 C168.32808,130.392831 167.34008,129.455831 165.36008,130.323831 L164.85308,130.545831 C162.87308,131.412831 160.64908,133.757831 159.88608,135.780831 L155.67308,146.960831 L149.64908,144.521831 C149.60408,143.591831 149.40008,142.653831 149.00408,141.748831 C147.26908,137.786831 142.65208,135.982831 138.68908,137.718831 C134.72808,139.453831 132.92508,144.070831 134.66008,148.032831 C136.39608,151.993831 141.01208,153.798831 144.97308,152.063831 C146.01008,151.609831 146.89208,150.955831 147.60908,150.171831 L153.55608,152.578831 L151.29308,158.581831 C150.23308,158.576831 149.15208,158.782831 148.11608,159.236831 C144.15508,160.971831 142.35108,165.588831 144.08708,169.550831 C145.82208,173.511831 150.43908,175.317831 154.40008,173.581831 C158.36308,171.845831 160.16608,167.227831 158.43108,163.266831 C158.03408,162.362831 157.48208,161.576831 156.82808,160.913831 L159.11908,154.831831 L170.19508,159.314831 C172.19908,160.125831 175.43008,160.079831 177.41008,159.211831 L177.91808,158.989831 C179.89808,158.122831 179.87908,156.761831 177.87508,155.949831" id="Fill-1"></path>
                </g>
            </g>
        </g>
    </g>
</svg>