<svg id="Layer_1" data-name="Layer 1" xmlns="http://www.w3.org/2000/svg" viewBox="0 0 262.91 128.25"><defs><style>.cls-1{fill:#fff;}</style></defs><title>logo_zu_white</title><path class="cls-1" d="M355.62,174.91l1.75,4.91,1.76-4.91h2v6.86h-1.26v-5.54l-1.9,5.54h-1.1l-1.92-5.54v5.54h-1.26v-6.86h2Zm-9,1.15v-1.15h5.85v1.15h-2.25v5.72h-1.36v-5.72h-2.24Z" transform="translate(-98.18 -165.51)"/><path class="cls-1" d="M331.48,270.55c7.36-13.62,10.25-31.88,10.38-52.92-0.12-16.88-1.62-29.91-3.63-36.33a22.37,22.37,0,0,0-4.95-8.34,22.09,22.09,0,0,0-8.64-5.61,43.75,43.75,0,0,0-12.09-1.85h0c-9.36.19-20.45,3.75-23.93,11.09-2.66,5.6-3.09,14.06-2.88,23.58,0.35,6.75,1,13.89,1.1,20.55,0.16,10.53,1.08,32.44-6.45,32.27l-0.49,0-0.49,0c-7.53.17-7.27-21.74-7.1-32.27,0.11-6.66.75-13.8,1.1-20.55,0.2-9.52-.23-18-2.88-23.58-3.48-7.33-13.91-10.9-23.28-11.09h0a43.81,43.81,0,0,0-12.1,1.85,22.11,22.11,0,0,0-8.64,5.61,22.34,22.34,0,0,0-4.94,8.34c-2,6.42-3.51,19.44-3.64,36.32,0.14,21,3,39.3,10.38,52.92,9.25,17.1,26.36,22.67,47.38,23.15q2,0,4,.05H280c1.38,0,2.73,0,4-.05,21-.48,38.14-6.06,47.38-23.15" transform="translate(-98.18 -165.51)"/><path class="cls-1" d="M209.25,186.6c0,26.92-37,56.75-37,62.77,0,4.51,21.75-2.38,32.69,4,6.75,4,7.84,11.94,7.84,18.42,0,23.33-25.41,21.92-62.27,21.92-44.69,0-51.65-2-51.72-20.91-0.06-22.16,45.64-55,45.64-61.48,0-3.44-27,4-38.6-2.54-7.5-4.26-7.63-14.59-7.63-20.84,0-18.86,20.23-22.33,58.66-22.33,39.46,0,52.41,2.38,52.41,21" transform="translate(-98.18 -165.51)"/></svg>