<?xml version="1.0" encoding="utf-8"?>
<!-- Generator: Adobe Illustrator 19.2.0, SVG Export Plug-In . SVG Version: 6.00 Build 0)  -->
<svg version="1.1" id="Layer_1" xmlns="http://www.w3.org/2000/svg" xmlns:xlink="http://www.w3.org/1999/xlink" x="0px" y="0px"
	 viewBox="0 0 459.3 459.3" style="enable-background:new 0 0 459.3 459.3;" xml:space="preserve">
<style type="text/css">
	.st0{fill:#00AD68;}
</style>
<g>
	<path class="st0" d="M355.6,174.9l1.8,4.9l1.8-4.9h2v6.9h-1.3v-5.5l-1.9,5.5h-1.1l-1.9-5.5v5.5h-1.3v-6.9H355.6z M346.6,176.1v-1.1
		h5.8v1.1h-2.2v5.7h-1.4v-5.7H346.6z"/>
	<path class="st0" d="M331.5,270.5c7.4-13.6,10.2-31.9,10.4-52.9c-0.1-16.9-1.6-29.9-3.6-36.3c-1-3.2-2.9-6.1-4.9-8.3
		c-2.3-2.5-5.3-4.4-8.6-5.6c-3.7-1.2-7.8-1.8-12.1-1.8h0c-9.4,0.2-20.4,3.8-23.9,11.1c-2.7,5.6-3.1,14.1-2.9,23.6
		c0.4,6.8,1,13.9,1.1,20.6c0.2,10.5,1.1,32.4-6.4,32.3c-0.2,0-0.3,0-0.5,0c-0.2,0-0.3,0-0.5,0c-7.5,0.2-7.3-21.7-7.1-32.3
		c0.1-6.7,0.8-13.8,1.1-20.6c0.2-9.5-0.2-18-2.9-23.6c-3.5-7.3-13.9-10.9-23.3-11.1h0c-4.2,0.1-8.4,0.7-12.1,1.8
		c-3.4,1.2-6.3,3.1-8.6,5.6c-2,2.2-3.9,5.1-4.9,8.3c-2,6.4-3.5,19.4-3.6,36.3c0.1,21,3,39.3,10.4,52.9c9.2,17.1,26.4,22.7,47.4,23.2
		c1.3,0,2.7,0,4,0.1h0.2h0.2c1.4,0,2.7,0,4-0.1C305.1,293.2,322.2,287.6,331.5,270.5"/>
	<path class="st0" d="M209.2,186.6c0,26.9-37,56.7-37,62.8c0,4.5,21.8-2.4,32.7,4c6.7,4,7.8,11.9,7.8,18.4
		c0,23.3-25.4,21.9-62.3,21.9c-44.7,0-51.7-2-51.7-20.9c-0.1-22.2,45.6-55,45.6-61.5c0-3.4-27,4-38.6-2.5
		c-7.5-4.3-7.6-14.6-7.6-20.8c0-18.9,20.2-22.3,58.7-22.3C196.3,165.6,209.2,168,209.2,186.6"/>
</g>
</svg>
